<svg width="36" height="35" viewBox="0 0 36 35" fill="none" xmlns="http://www.w3.org/2000/svg">
<path d="M34.8364 12.3245L24.0443 10.7277L19.22 0.770296C19.0882 0.497669 18.8714 0.276971 18.6037 0.142821C17.9321 -0.194718 17.116 0.0865644 16.7802 0.770296L11.9558 10.7277L1.16373 12.3245C0.866192 12.3678 0.594158 12.5106 0.385882 12.7269C0.134088 12.9904 -0.00466244 13.3449 0.000119635 13.7125C0.00490171 14.0801 0.152825 14.4307 0.411385 14.6873L8.21961 22.4377L6.37488 33.3817C6.33162 33.6363 6.35929 33.8981 6.45476 34.1375C6.55022 34.3769 6.70966 34.5842 6.91499 34.7361C7.12032 34.8879 7.36333 34.9781 7.61646 34.9965C7.86959 35.0149 8.12271 34.9607 8.34713 34.84L18.0001 29.6731L27.653 34.84C27.9166 34.9828 28.2226 35.0304 28.5159 34.9785C29.2555 34.8487 29.7528 34.1347 29.6253 33.3817L27.7806 22.4377L35.5888 14.6873C35.8013 14.4752 35.9416 14.1983 35.9841 13.8953C36.0989 13.1381 35.5803 12.437 34.8364 12.3245V12.3245Z" fill="black"/>
</svg>
